<svg width="2332" height="1508" viewBox="0 0 2332 1508" fill="none" xmlns="http://www.w3.org/2000/svg">
<g filter="url(#filter0_i_0_1)">
<circle cx="1166" cy="754" r="308" fill="url(#paint0_linear_0_1)"/>
</g>
<circle cx="1166" cy="754" r="275" fill="#190525" fill-opacity="0.92"/>
<g filter="url(#filter1_i_0_1)">
<circle cx="1166" cy="754" r="250" fill="#461763"/>
<circle cx="1166" cy="754" r="250" fill="#3B075B"/>
<circle cx="1166" cy="754" r="250" fill="#1C002D"/>
</g>
<g clip-path="url(#clip0_0_1)">
<path d="M1489.69 646.927H1516.23" stroke="#1C002D" stroke-width="9" stroke-linecap="round" stroke-linejoin="round"/>
<path d="M1268.9 567.302L1242.35 540.76L1215.81 567.302L1189.27 540.76L1162.73 567.302L1136.19 540.76L1109.65 567.302L1083.1 540.76L1056.56 567.302V713.281L1096.38 753.094L1056.56 1045.05H1268.9L1242.35 753.094L1295.44 713.281V646.927H1268.9V567.302Z" fill="white"/>
<path d="M962.479 766.365L909.396 792.906L856.312 766.365V527.49L909.396 500.948L962.479 527.49V766.365Z" fill="white"/>
<path d="M1489.69 766.365L1436.6 792.906L1383.52 766.365V527.49L1436.6 500.948L1489.69 527.49V766.365Z" fill="white"/>
<path d="M1383.52 593.844V766.365L1436.6 792.906L1489.69 766.365V593.844L1436.6 567.302L1383.52 593.844Z" fill="#3B075B"/>
<path d="M1255.62 646.927V682.173L1211.25 713.281H1056.56L1096.38 753.094H1242.35L1295.44 713.281V646.927H1255.62Z" fill="#3B075B"/>
<path opacity="0.33" d="M962.479 646.927H1052.48" stroke="#1C002D" stroke-width="9" stroke-linecap="round" stroke-linejoin="round"/>
<path d="M1268.9 646.927H1378.9" stroke="#1C002D" stroke-width="9" stroke-linecap="round" stroke-linejoin="round"/>
<path opacity="0.9" d="M1489.69 766.365L1436.6 792.906L1383.52 766.365V527.49L1436.6 500.948L1489.69 527.49V766.365Z" stroke="#1C002D" stroke-width="9" stroke-linecap="round" stroke-linejoin="round"/>
<path d="M1268.9 567.302L1242.35 540.76L1215.81 567.302L1189.27 540.76L1162.73 567.302L1136.19 540.76L1109.65 567.302L1083.1 540.76L1056.56 567.302V713.281L1096.38 753.094L1056.56 1045.05H1268.9L1242.35 753.094L1295.44 713.281V646.927H1268.9V567.302Z" stroke="#1C002D" stroke-width="9" stroke-linecap="round" stroke-linejoin="round"/>
<path d="M829.771 646.927H856.312" stroke="#1C002D" stroke-width="9" stroke-linecap="round" stroke-linejoin="round"/>
<path d="M856.312 593.844V766.365L909.396 792.906L962.479 766.365V593.844L909.396 567.302L856.312 593.844Z" fill="#3B075B"/>
<path d="M962.479 766.365L909.396 792.906L856.312 766.365V527.49L909.396 500.948L962.479 527.49V766.365Z" stroke="#1C002D" stroke-width="9" stroke-linecap="round" stroke-linejoin="round"/>
<g filter="url(#filter2_d_0_1)">
<path d="M1092.58 1019.93V1019H1101.64V1019.93H1092.58ZM1092.58 1029.11V1028.18H1101.34V1029.11H1092.58ZM1092.1 1019H1093.09V1040H1092.1V1019ZM1103.79 1033.1C1103.79 1031.7 1104.1 1030.46 1104.72 1029.38C1105.34 1028.3 1106.18 1027.45 1107.24 1026.83C1108.3 1026.21 1109.49 1025.9 1110.81 1025.9C1112.15 1025.9 1113.35 1026.21 1114.41 1026.83C1115.47 1027.45 1116.31 1028.3 1116.93 1029.38C1117.55 1030.46 1117.86 1031.7 1117.86 1033.1C1117.86 1034.48 1117.55 1035.72 1116.93 1036.82C1116.31 1037.9 1115.47 1038.75 1114.41 1039.37C1113.35 1039.99 1112.15 1040.3 1110.81 1040.3C1109.49 1040.3 1108.3 1039.99 1107.24 1039.37C1106.18 1038.75 1105.34 1037.9 1104.72 1036.82C1104.1 1035.72 1103.79 1034.48 1103.79 1033.1ZM1104.72 1033.1C1104.72 1034.34 1104.99 1035.44 1105.53 1036.4C1106.07 1037.34 1106.8 1038.08 1107.72 1038.62C1108.66 1039.16 1109.7 1039.43 1110.84 1039.43C1111.98 1039.43 1113.01 1039.16 1113.93 1038.62C1114.85 1038.08 1115.58 1037.33 1116.12 1036.37C1116.66 1035.41 1116.93 1034.32 1116.93 1033.1C1116.93 1031.88 1116.66 1030.79 1116.12 1029.83C1115.58 1028.87 1114.85 1028.12 1113.93 1027.58C1113.01 1027.04 1111.98 1026.77 1110.84 1026.77C1109.7 1026.77 1108.66 1027.04 1107.72 1027.58C1106.8 1028.12 1106.07 1028.87 1105.53 1029.83C1104.99 1030.79 1104.72 1031.88 1104.72 1033.1ZM1122.5 1026.2V1040H1121.57V1026.2H1122.5ZM1127.39 1027.4C1127.11 1027.2 1126.83 1027.05 1126.55 1026.95C1126.27 1026.83 1125.97 1026.77 1125.65 1026.77C1124.91 1026.77 1124.3 1026.99 1123.82 1027.43C1123.36 1027.87 1123.02 1028.46 1122.8 1029.2C1122.6 1029.92 1122.5 1030.72 1122.5 1031.6H1122.08C1122.08 1030.5 1122.22 1029.53 1122.5 1028.69C1122.8 1027.83 1123.23 1027.15 1123.79 1026.65C1124.37 1026.15 1125.05 1025.9 1125.83 1025.9C1126.21 1025.9 1126.58 1025.97 1126.94 1026.11C1127.3 1026.23 1127.62 1026.41 1127.9 1026.65L1127.39 1027.4ZM1129.49 1040.9H1130.42C1130.42 1041.92 1130.63 1042.81 1131.05 1043.57C1131.49 1044.33 1132.1 1044.93 1132.88 1045.37C1133.66 1045.81 1134.56 1046.03 1135.58 1046.03C1136.54 1046.03 1137.44 1045.8 1138.28 1045.34C1139.12 1044.9 1139.8 1044.2 1140.32 1043.24C1140.84 1042.3 1141.1 1041.12 1141.1 1039.7V1026.2H1142V1039.7C1142 1041.28 1141.7 1042.6 1141.1 1043.66C1140.52 1044.74 1139.74 1045.55 1138.76 1046.09C1137.8 1046.63 1136.74 1046.9 1135.58 1046.9C1134.38 1046.9 1133.32 1046.65 1132.4 1046.15C1131.48 1045.65 1130.76 1044.94 1130.24 1044.02C1129.74 1043.12 1129.49 1042.08 1129.49 1040.9ZM1129.1 1033.1C1129.1 1031.62 1129.39 1030.35 1129.97 1029.29C1130.55 1028.21 1131.33 1027.38 1132.31 1026.8C1133.31 1026.2 1134.41 1025.9 1135.61 1025.9C1136.83 1025.9 1137.88 1026.23 1138.76 1026.89C1139.64 1027.55 1140.32 1028.43 1140.8 1029.53C1141.28 1030.63 1141.52 1031.82 1141.52 1033.1C1141.52 1034.36 1141.28 1035.55 1140.8 1036.67C1140.32 1037.77 1139.64 1038.65 1138.76 1039.31C1137.88 1039.97 1136.83 1040.3 1135.61 1040.3C1134.41 1040.3 1133.31 1040.01 1132.31 1039.43C1131.33 1038.83 1130.55 1037.99 1129.97 1036.91C1129.39 1035.83 1129.1 1034.56 1129.1 1033.1ZM1130.03 1033.1C1130.03 1034.4 1130.28 1035.53 1130.78 1036.49C1131.3 1037.43 1131.99 1038.16 1132.85 1038.68C1133.73 1039.18 1134.71 1039.43 1135.79 1039.43C1136.77 1039.43 1137.66 1039.14 1138.46 1038.56C1139.26 1037.96 1139.9 1037.17 1140.38 1036.19C1140.86 1035.21 1141.1 1034.14 1141.1 1032.98C1141.1 1032.18 1140.96 1031.42 1140.68 1030.7C1140.4 1029.96 1140.02 1029.3 1139.54 1028.72C1139.06 1028.12 1138.49 1027.65 1137.83 1027.31C1137.19 1026.95 1136.51 1026.77 1135.79 1026.77C1134.71 1026.77 1133.73 1027.03 1132.85 1027.55C1131.99 1028.05 1131.3 1028.77 1130.78 1029.71C1130.28 1030.65 1130.03 1031.78 1130.03 1033.1ZM1151.86 1040.3C1150.66 1040.3 1149.58 1039.99 1148.62 1039.37C1147.68 1038.73 1146.94 1037.87 1146.4 1036.79C1145.86 1035.69 1145.59 1034.45 1145.59 1033.07C1145.59 1031.67 1145.87 1030.43 1146.43 1029.35C1146.99 1028.27 1147.75 1027.43 1148.71 1026.83C1149.69 1026.21 1150.8 1025.9 1152.04 1025.9C1153.24 1025.9 1154.3 1026.19 1155.22 1026.77C1156.16 1027.35 1156.9 1028.15 1157.44 1029.17C1157.98 1030.17 1158.25 1031.3 1158.25 1032.56C1158.25 1032.66 1158.24 1032.78 1158.22 1032.92C1158.22 1033.06 1158.21 1033.19 1158.19 1033.31H1146.19V1032.5H1157.53L1157.11 1033.1C1157.15 1033 1157.18 1032.88 1157.2 1032.74C1157.24 1032.58 1157.26 1032.42 1157.26 1032.26C1157.26 1031.22 1157.03 1030.28 1156.57 1029.44C1156.11 1028.6 1155.48 1027.94 1154.68 1027.46C1153.9 1026.98 1153.02 1026.74 1152.04 1026.74C1150.98 1026.74 1150.03 1027.01 1149.19 1027.55C1148.37 1028.07 1147.72 1028.81 1147.24 1029.77C1146.76 1030.71 1146.52 1031.79 1146.52 1033.01C1146.52 1034.25 1146.75 1035.36 1147.21 1036.34C1147.69 1037.3 1148.33 1038.06 1149.13 1038.62C1149.95 1039.16 1150.89 1039.43 1151.95 1039.43C1153.09 1039.43 1154.08 1039.18 1154.92 1038.68C1155.76 1038.18 1156.54 1037.39 1157.26 1036.31L1158.01 1036.79C1157.19 1038.01 1156.29 1038.9 1155.31 1039.46C1154.33 1040.02 1153.18 1040.3 1151.86 1040.3Z" fill="white"/>
</g>
</g>
<g filter="url(#filter3_i_0_1)">
<path d="M885.259 777C885.259 721 897.659 671.4 922.459 628.2C947.259 585 980.859 551 1023.26 526.2C1065.66 501.4 1113.26 489 1166.06 489C1219.66 489 1267.66 501.4 1310.06 526.2C1352.46 551 1386.06 585 1410.86 628.2C1435.66 671.4 1448.06 721 1448.06 777C1448.06 832.2 1435.66 881.8 1410.86 925.8C1386.06 969 1352.46 1003 1310.06 1027.8C1267.66 1052.6 1219.66 1065 1166.06 1065C1113.26 1065 1065.66 1052.6 1023.26 1027.8C980.859 1003 947.259 969 922.459 925.8C897.659 881.8 885.259 832.2 885.259 777ZM922.459 777C922.459 826.6 933.259 870.6 954.859 909C976.459 946.6 1005.66 976.2 1042.46 997.8C1080.06 1019.4 1121.66 1030.2 1167.26 1030.2C1212.86 1030.2 1254.06 1019.4 1290.86 997.8C1327.66 976.2 1356.86 946.2 1378.46 907.8C1400.06 869.4 1410.86 825.8 1410.86 777C1410.86 728.2 1400.06 684.6 1378.46 646.2C1356.86 607.8 1327.66 577.8 1290.86 556.2C1254.06 534.6 1212.86 523.8 1167.26 523.8C1121.66 523.8 1080.06 534.6 1042.46 556.2C1005.66 577.8 976.459 607.8 954.859 646.2C933.259 684.6 922.459 728.2 922.459 777Z" fill="url(#paint1_radial_0_1)"/>
</g>
<defs>
<filter id="filter0_i_0_1" x="858" y="396" width="616" height="666" filterUnits="userSpaceOnUse" color-interpolation-filters="sRGB">
<feFlood flood-opacity="0" result="BackgroundImageFix"/>
<feBlend mode="normal" in="SourceGraphic" in2="BackgroundImageFix" result="shape"/>
<feColorMatrix in="SourceAlpha" type="matrix" values="0 0 0 0 0 0 0 0 0 0 0 0 0 0 0 0 0 0 127 0" result="hardAlpha"/>
<feOffset dy="-50"/>
<feGaussianBlur stdDeviation="75"/>
<feComposite in2="hardAlpha" operator="arithmetic" k2="-1" k3="1"/>
<feColorMatrix type="matrix" values="0 0 0 0 0.332141 0 0 0 0 0 0 0 0 0 0.448844 0 0 0 0.74 0"/>
<feBlend mode="normal" in2="shape" result="effect1_innerShadow_0_1"/>
</filter>
<filter id="filter1_i_0_1" x="916" y="404" width="500" height="600" filterUnits="userSpaceOnUse" color-interpolation-filters="sRGB">
<feFlood flood-opacity="0" result="BackgroundImageFix"/>
<feBlend mode="normal" in="SourceGraphic" in2="BackgroundImageFix" result="shape"/>
<feColorMatrix in="SourceAlpha" type="matrix" values="0 0 0 0 0 0 0 0 0 0 0 0 0 0 0 0 0 0 127 0" result="hardAlpha"/>
<feMorphology radius="30" operator="dilate" in="SourceAlpha" result="effect1_innerShadow_0_1"/>
<feOffset dy="-100"/>
<feGaussianBlur stdDeviation="100"/>
<feComposite in2="hardAlpha" operator="arithmetic" k2="-1" k3="1"/>
<feColorMatrix type="matrix" values="0 0 0 0 0.914325 0 0 0 0 0.672018 0 0 0 0 0.999463 0 0 0 0.78 0"/>
<feBlend mode="normal" in2="shape" result="effect1_innerShadow_0_1"/>
</filter>
<filter id="filter2_d_0_1" x="1088.1" y="1019" width="74.1537" height="35.9" filterUnits="userSpaceOnUse" color-interpolation-filters="sRGB">
<feFlood flood-opacity="0" result="BackgroundImageFix"/>
<feColorMatrix in="SourceAlpha" type="matrix" values="0 0 0 0 0 0 0 0 0 0 0 0 0 0 0 0 0 0 127 0" result="hardAlpha"/>
<feOffset dy="4"/>
<feGaussianBlur stdDeviation="2"/>
<feComposite in2="hardAlpha" operator="out"/>
<feColorMatrix type="matrix" values="0 0 0 0 0 0 0 0 0 0 0 0 0 0 0 0 0 0 0.25 0"/>
<feBlend mode="normal" in2="BackgroundImageFix" result="effect1_dropShadow_0_1"/>
<feBlend mode="normal" in="SourceGraphic" in2="effect1_dropShadow_0_1" result="shape"/>
</filter>
<filter id="filter3_i_0_1" x="885.259" y="439" width="562.8" height="626" filterUnits="userSpaceOnUse" color-interpolation-filters="sRGB">
<feFlood flood-opacity="0" result="BackgroundImageFix"/>
<feBlend mode="normal" in="SourceGraphic" in2="BackgroundImageFix" result="shape"/>
<feColorMatrix in="SourceAlpha" type="matrix" values="0 0 0 0 0 0 0 0 0 0 0 0 0 0 0 0 0 0 127 0" result="hardAlpha"/>
<feOffset dy="-100"/>
<feGaussianBlur stdDeviation="25"/>
<feComposite in2="hardAlpha" operator="arithmetic" k2="-1" k3="1"/>
<feColorMatrix type="matrix" values="0 0 0 0 0.333333 0 0 0 0 0 0 0 0 0 0.447059 0 0 0 0.5 0"/>
<feBlend mode="normal" in2="shape" result="effect1_innerShadow_0_1"/>
</filter>
<linearGradient id="paint0_linear_0_1" x1="1166" y1="446" x2="1166" y2="1062" gradientUnits="userSpaceOnUse">
<stop stop-color="white"/>
<stop offset="0.395" stop-color="#999999"/>
</linearGradient>
<radialGradient id="paint1_radial_0_1" cx="0" cy="0" r="1" gradientUnits="userSpaceOnUse" gradientTransform="translate(1166.5 1033.5) rotate(90) scale(469.5 324.5)">
<stop offset="0.65" stop-color="#999999"/>
<stop offset="0.6501" stop-color="white" stop-opacity="0"/>
</radialGradient>
<clipPath id="clip0_0_1">
<rect width="650" height="650" fill="white" transform="translate(851 448)"/>
</clipPath>
</defs>
</svg>
